<svg xmlns="http://www.w3.org/2000/svg" width="210" height="44" viewBox="0 0 210 44" role="img" aria-label="BrandDigits"><rect width="44" height="44" rx="12" fill="#075da7"/><path d="M12 11h12.6c5.2 0 8.4 2.4 8.4 6.3 0 2.4-1.3 4.2-3.5 5.2 2.9.8 4.5 2.9 4.5 5.6 0 4.6-3.7 7-9.3 7H12V11Zm11.8 9c2 0 3-.8 3-2.3s-1-2.2-3-2.2h-5.5V20h5.5Zm.8 10.6c2.1 0 3.3-.9 3.3-2.7 0-1.7-1.2-2.6-3.3-2.6h-6.3v5.3h6.3Z" fill="#fff"/><circle cx="35" cy="10" r="5" fill="#f7931e"/><text x="55" y="28" fill="#075da7" font-family="Arial,sans-serif" font-size="20" font-weight="700">Brand</text><text x="113" y="28" fill="#f7931e" font-family="Arial,sans-serif" font-size="20" font-weight="700">Digits</text></svg>
